<svg xmlns="http://www.w3.org/2000/svg" width="14.777" height="26.079" viewBox="0 0 14.777 26.079"><g transform="translate(837.777 -391.224)"><path d="M-825.012,401.188h-1.154v-.451c.006-2.37.013-5.32-1.277-6.9a3.545,3.545,0,0,0-2.939-1.211,3.717,3.717,0,0,0-3.095,1.232c-1.182,1.461-1.153,4.073-1.127,6.377,0,.326.007.644.007.949h-1.154c0-.3,0-.61-.007-.93-.028-2.452-.062-5.5,1.459-7.383a4.763,4.763,0,0,1,3.917-1.651,4.6,4.6,0,0,1,3.756,1.624c1.628,1.989,1.621,5.262,1.615,7.893Z"/><path d="M-825.547,401.55h-9.683a2.868,2.868,0,0,0-2.547,3.1V414.2a2.868,2.868,0,0,0,2.547,3.1h9.683A2.867,2.867,0,0,0-823,414.2v-9.545A2.867,2.867,0,0,0-825.547,401.55Zm-6.466,11.98,1.084-4.431a1.584,1.584,0,0,1-1.018-1.571,1.5,1.5,0,0,1,1.328-1.618,1.5,1.5,0,0,1,1.327,1.618,1.617,1.617,0,0,1-.926,1.542l1.455,4.381Z"/></g></svg>