<svg xmlns="http://www.w3.org/2000/svg" width="80" height="80" viewBox="0 0 80 80"><defs><style>.a,.b,.c,.e{fill:none;}.a,.b,.c{stroke:#000;stroke-miterlimit:10;}.a{stroke-width:3px;}.b{stroke-width:2px;}.d{stroke:none;}</style></defs><g transform="translate(-67.261 -236.375)"><g class="a" transform="translate(67.261 236.375)"><circle class="d" cx="40" cy="40" r="40"/><circle class="e" cx="40" cy="40" r="38.5"/></g><line class="b" x2="9.128" transform="translate(78.489 287.064)"/><line class="b" x1="0.099" y2="8.752" transform="translate(82.986 282.851)"/><line class="b" x2="9.128" transform="translate(110.181 303.053)"/><line class="b" x1="0.099" y2="8.752" transform="translate(114.678 298.84)"/><line class="b" x2="9.128" transform="translate(123.394 281.702)"/><line class="b" x1="0.099" y2="8.752" transform="translate(127.891 277.489)"/><path d="M114.788,277.608A10,10,0,0,0,108.111,274c-.254-.027-.512-.035-.772-.043-.094,0-.186-.014-.28-.014-.251,0-.5.02-.743.038s-.5.048-.747.086a9.988,9.988,0,0,0-6.508,3.9c-.152.2-.3.41-.435.625a10,10,0,1,0,16.612-.383C115.094,278,114.947,277.8,114.788,277.608Zm-7.729,15.646a9.293,9.293,0,0,1-8.041-13.982c.131-.225.269-.445.417-.657a9.312,9.312,0,0,1,6.5-3.907c.252-.031.507-.046.764-.056.081,0,.161-.012.243-.013.038,0,.075-.005.113-.005.225,0,.446.018.667.034a9.289,9.289,0,0,1,6.688,3.589c.154.2.3.4.441.614a9.3,9.3,0,0,1-7.8,14.383Z"/><path class="c" d="M100.559,281.944a4.5,4.5,0,0,1,4.5-4.5"/><path d="M95.462,275.277a14.486,14.486,0,0,1,9.437-5.654c.358-.054.718-.1,1.083-.124.081-.006.162-.007.243-.013l-8.892-15.4H82.258l-.163.094,12.72,22.032.016-.027C95.029,275.872,95.241,275.572,95.462,275.277Z"/><path d="M108.585,269.526a14.49,14.49,0,0,1,9.681,5.231c.22.268.423.548.622.831l12.14-21.026-.163-.094H115.791l-8.649,14.98c.108.005.215.014.324.017C107.842,269.475,108.217,269.488,108.585,269.526Z"/><path d="M118.888,275.588c-.2-.283-.4-.563-.622-.831a14.49,14.49,0,0,0-9.681-5.231c-.368-.038-.743-.051-1.119-.061-.109,0-.216-.012-.324-.017-.028,0-.055,0-.084,0-.281,0-.557.023-.833.042-.081.006-.162.007-.243.013-.365.027-.725.07-1.083.124a14.486,14.486,0,0,0-9.437,5.654c-.221.295-.433.6-.631.907l-.016.027a14.5,14.5,0,1,0,24.1-.583C118.909,275.615,118.9,275.6,118.888,275.588Zm-11.83,21.856A13.473,13.473,0,0,1,95.385,277.2l.015-.027c.19-.326.389-.645.6-.953a13.5,13.5,0,0,1,9.43-5.666c.365-.044.735-.067,1.108-.081h.009c.115-.005.228-.016.344-.018.054,0,.107-.008.162-.008.327,0,.648.026.969.049a13.472,13.472,0,0,1,9.7,5.2c.214.276.419.558.611.85.01.014.021.027.03.041a13.483,13.483,0,0,1-11.306,20.855Z"/></g></svg>